<svg version="1.1" id="Layer_1" xmlns="http://www.w3.org/2000/svg" xmlns:xlink="http://www.w3.org/1999/xlink" x="0px" y="0px"
	 viewBox="0 0 600 185" style="enable-background:new 0 0 600 185;" xml:space="preserve">
<g>
	<path style="fill:#1E1E1C;" d="M395,1.3c6.1,0,6.7,0.4,6.7,1.5v26.3c3.7-3.3,8.5-5.1,13.5-5c13,0,21.4,10.3,21.4,27.5
		c0,10.1-2.8,17.6-7.6,22.5c-4.5,4.5-12,6.6-20.6,6.6c-7.1,0-15.5-1.9-19.5-4.2c-1.1-0.7-1.2-1.3-1.2-2.7v-71c0-1.1,0.2-1.5,6.9-1.5
		L395,1.3 M401.7,67.9c2.2,0.7,4.6,1.1,6.9,1c4.2,0,7.9-1.2,9.9-3.8c2-2.6,3.5-7.2,3.5-13.4s-1.4-10-3.4-12.4
		c-1.9-2.1-4.7-3.2-7.5-3c-2.9,0-6.4,0.9-7.9,2.6c-1.1,1.2-1.5,2.9-1.5,5.6V67.9z M449,0.1c4.7,0.1,8.4,4,8.3,8.7s-4,8.4-8.7,8.3
		c-4.6-0.1-8.3-3.9-8.3-8.5C440.4,3.8,444.2,0,449,0.1C448.9,0.1,449,0.1,449,0.1 M449.6,25.3c6.1,0,6.7,0.4,6.7,1.5v51.3
		c0,1.1-0.6,1.5-6.7,1.5h-0.5c-6.7,0-6.9-0.4-6.9-1.5V26.8c0-1.1,0.2-1.5,6.9-1.5H449.6z M470.7,1.3c5.9,0,6.6,0.3,6.8,1.3
		c0.6,3,0.9,16.1,0.9,30v32.8c0,2.4,0.8,3.5,3.4,3.5h1.2c0.9,0,1,0.7,1,4.5v0.9c0,3.7-0.1,4.1-0.9,4.5c-2.2,0.9-4.6,1.3-6.9,1.2
		c-3.2,0.2-6.3-1-8.7-3.1c-2.5-2.5-3.3-6-3.3-10.8V30.4c0-9.8-0.5-24.1-0.8-27.9c-0.1-1.1,0-1.3,6.7-1.3L470.7,1.3 M496.4,0.1
		c4.7,0.1,8.4,4,8.3,8.7s-4,8.4-8.7,8.3c-4.6-0.1-8.3-3.9-8.3-8.5C487.7,3.8,491.6,0,496.4,0.1C496.3,0.1,496.3,0.1,496.4,0.1
		 M497,25.3c6,0,6.7,0.4,6.7,1.5v51.3c0,1.1-0.6,1.5-6.7,1.5h-0.5c-6.7,0-6.9-0.4-6.9-1.5V26.8c0-1.1,0.2-1.5,6.9-1.5H497z M525,136
		c3.9-5.5,10-8.6,18.2-8.6c6.3,0,11.4,1.9,14.8,5.4c3.4,3.5,5,9,5,17.3v31.7c0,0.7-0.5,1.1-2.9,1.1h-0.8c-2.5,0-3-0.4-3-1.1v-27
		c0-9-0.4-13.4-3.3-16.8c-2.3-2.7-6.4-3.9-11.4-3.9c-5.7,0-9.7,1.8-12.8,5.1c-1.8,2.1-2.8,4.8-3.1,7.5c-0.3,3-0.3,8.7-0.3,15v20.2
		c0,0.7-0.7,1.1-2.9,1.1h-0.8c-2.5,0-3-0.4-3-1.1v-38.8c0-4.2,0-9-0.2-13.6c0-0.7,0.8-0.9,2.8-0.9h0.7c2.1,0,2.8,0.2,2.8,0.9
		L525,136 M581.9,133.6v33.1c0,5,0.2,7.7,1.8,9.4c1.7,1.6,3.4,2.1,6.3,2.1c2.7,0,5.3-0.4,7.9-1.2c0.9-0.3,0.9,0,1.5,1.9l0.2,0.7
		c0.5,2,0.3,2.3-0.2,2.5c-3.5,1.3-7.1,2-10.8,2c-3.5,0.2-7-1-9.7-3.2c-2.8-2.7-3.6-6.5-3.6-13.3v-33.9H568c-0.5,0-0.6-0.4-0.6-2.4
		V131c0-2,0.1-2.5,0.7-2.5h7.1v-15.4c0-0.5,0.1-0.6,3-0.6h0.7c2.7,0,3,0.2,3,0.6v15.4h14.5c0.6,0,0.7,0.5,0.7,2.5v0.3
		c0,2-0.1,2.4-0.7,2.4L581.9,133.6 M250.3,1.3c6.1,0,6.7,0.4,6.7,1.5v63.1c0,2.3,0.9,2.9,3,2.9c1.2,0,1.4,0.5,1.4,4.2v1.1
		c0,3.6-0.2,4.5-0.9,4.7c-2.4,0.8-4.9,1.3-7.4,1.2c-4.5,0-7.6-2.1-9-5.2c-3.8,3.8-9,5.9-14.4,5.8c-13.5,0-21.8-10.5-21.8-27.5
		c0-18.3,9.2-29.1,22.7-29.1c4.5-0.1,8.9,1.6,12.3,4.6v-26c0-1.1,0.2-1.5,6.9-1.5L250.3,1.3 M243,41.1c-2.2-2.9-5.6-4.7-9.3-4.7
		c-7.5,0-11.2,6-11.2,16.9c0,6.1,1.5,10,3.5,12.4c2,2.1,4.8,3.2,7.7,3c2.8,0.1,5.5-0.9,7.7-2.6c1.1-1.2,1.5-2.9,1.5-5.6V41.1H243z
		 M274,0.1c4.7,0.1,8.4,4,8.3,8.7s-4,8.4-8.7,8.3c-4.6-0.1-8.3-3.9-8.3-8.5C265.3,3.8,269.2,0,274,0.1C273.9,0.1,274,0.1,274,0.1
		 M274.6,25.3c6.1,0,6.7,0.4,6.7,1.5v51.3c0,1.1-0.6,1.5-6.7,1.5h-0.5c-6.7,0-6.9-0.4-6.9-1.5V26.8c0-1.1,0.2-1.5,6.9-1.5H274.6z
		 M288.9,68.1c1.8-3.1,2.7-4,3.8-3.2c3.9,2.7,8.5,4.3,13.2,4.5c5.5,0,8.7-2.1,8.7-4.9c0-8-26.4-3.1-26.4-22.8
		c0-10.8,9.3-17.5,21.4-17.5c6.1-0.2,12.1,1.6,17,5.2c1,0.7,0.8,1.5-1.2,5l-0.9,1.5c-1.9,3.2-2.6,3.7-3.7,3
		c-3.1-2.1-6.8-3.3-10.5-3.3c-2.4-0.2-4.7,0.4-6.7,1.8c-0.9,0.7-1.5,1.8-1.5,3c0,7.7,26.4,3.7,26.4,22.3c0,4.7-1.9,9.2-5.3,12.5
		c-3.8,3.7-9.5,5.7-17,5.7c-7.9,0-15-2.6-19.2-6.2c-0.8-0.7-0.7-1.7,0.9-4.7l1-1.8 M367.1,26.6c0.1-0.9,0.5-1.3,6.1-1.3h0.6
		c5.3,0,6,0.3,6,1.5c0,3.4-0.2,13.8-0.2,22.3v6.3c0,8,0.3,17,0.7,22.5c0.1,1.5,0,1.9-5.9,1.9h-0.5c-5,0-5.9-0.2-6.3-1.3
		c-0.3-1.1-0.6-2.3-0.7-3.5c-3.7,3.8-8.8,5.9-14.1,5.9c-13.5,0-21.9-10.3-21.9-27.2c0-18.8,10.4-29.3,22.8-29.3
		c5-0.1,9.9,2.2,13,6.1L367.1,26.6 M365.4,41.5c-2-3.1-5.4-4.9-9-5c-7.5,0-11,6-11,16.6c0,9.2,2.5,15.8,10.8,15.8
		c2.9,0.1,5.7-1,7.7-3.1c1.2-1.7,1.7-3.7,1.5-5.8V41.5z M523.6,10.4c6.1,0,6.7,0.4,6.7,1.5v13.3h12.3c0.9,0,1.3,0.2,1.3,5.2v0.7
		c0,5-0.4,5.2-1.3,5.2h-12.3v25.5c0,3,0.5,4.6,1.8,5.8c1.3,1,2.9,1.6,4.5,1.5c1.8-0.1,3.6-0.4,5.4-1c1-0.3,1.5,0.3,2.7,4.1l0.3,1
		c1.1,3.8,1,4.5-0.2,5.1c-3.7,1.7-7.8,2.6-11.9,2.6c-5.8,0-9.8-1.5-12.5-4.2s-4.2-7.2-4.2-13.9V36.4H509c-0.9,0-1.3-0.2-1.3-5.2
		v-0.7c0-5,0.4-5.2,1.3-5.2h7.1V12c0-1.1,0.2-1.5,6.9-1.5L523.6,10.4 M553.8,25.3c6.1,0,6.6,0.4,7,1.5l6.4,20.3
		c2,6.1,3.5,12.2,4.6,18.5c1-5.4,2.7-11.9,4.5-18.4l6-20.4c0.4-1.1,1-1.5,6.5-1.5h1.3c6.3,0,6.7,0.6,6.3,1.9l-17.7,51.7
		c-6,17.6-12.7,25-26.1,25c-3.9,0.1-7.7-0.8-11.1-2.6c-0.9-0.6-0.7-1.5,0.2-4.9l0.4-1.5c1-3.5,1.5-4.5,3.1-3.9c2.1,0.6,4.2,1,6.4,1
		c5.6,0,9.2-2.4,12.8-12L546,27.1c-0.4-1.2,0-1.9,6.5-1.9L553.8,25.3 M249.9,134.9l-0.4,0.8c-0.9,1.9-1.5,2.1-2.4,1.5
		c-3.8-2.3-8.1-3.6-12.6-3.6c-10.9,0-18.4,7.9-18.4,22.2c0,11.7,4.5,22,17.2,22c4.7,0.1,9.3-1,13.5-3.1c0.9-0.5,1.3-0.1,2.1,1.8
		l0.4,1.1c0.6,1.7,0.6,2.1-0.1,2.5c-5.1,2.6-10.8,4-16.6,3.8c-16,0-23.7-12-23.7-27.5c0-18.9,10.8-29.1,25.1-29.1
		c5.7-0.1,11.3,1.5,16.1,4.6C250.9,132.5,250.9,132.9,249.9,134.9 M261.4,178.9c-5.1-4.5-8.2-12-8.2-22c0-19.5,10-29.5,25.4-29.5
		c6.2,0,11.2,1.5,15.2,5.1c5.1,4.5,8.2,12,8.2,22c0,19.5-10,29.5-25.4,29.5C270.4,184,265.3,182.5,261.4,178.9 M276.9,177.9
		c9.5,0,17.9-6.3,17.9-22.7c0-10.5-3.6-21.7-16.5-21.7c-9.4,0-17.8,6.4-17.8,22.7C260.4,166.6,264,177.9,276.9,177.9 M315.5,136
		c3.9-5.5,10-8.6,18.2-8.6c6.3,0,11.4,1.9,14.8,5.4c3.4,3.5,5.1,9,5.1,17.3v31.7c0,0.7-0.5,1.1-2.9,1.1h-0.8c-2.5,0-3-0.4-3-1.1v-27
		c0-9-0.4-13.4-3.3-16.8c-2.3-2.7-6.4-3.9-11.4-3.9c-4.8-0.3-9.5,1.6-12.8,5.1c-1.8,2.1-2.8,4.8-3.1,7.5c-0.3,3-0.3,8.7-0.3,15v20.2
		c0,0.7-0.7,1.1-2.9,1.1h-0.8c-2.5,0-3-0.4-3-1.1v-38.8c0-4.2,0-9-0.2-13.6c0-0.7,0.8-0.9,2.8-0.9h0.7c2.1,0,2.8,0.2,2.8,0.9
		L315.5,136 M373.2,134.2v47.7c0,0.7-0.7,1-2.9,1h-0.8c-2.4,0-3-0.3-3-1v-47.7h-7.2c-0.7,0-0.9-0.5-0.9-2.5V131
		c0-2.1,0.2-2.6,0.9-2.6h7.2v-4.2c0-14.8,6.4-20.8,20.3-20.8c5.4,0.1,10.7,1.4,15.6,3.7c0.7,0.3,0.7,0.7-0.1,2.7l-0.2,0.5
		c-0.8,2-1,2.3-2,1.9c-4.2-2.1-8.8-3.2-13.4-3.2c-10.1,0-13.5,4.3-13.5,15.4v4h12.7c0.7,0,0.9,0.5,0.9,2.6v0.7c0,2-0.2,2.5-0.9,2.5
		H373.2 M396.9,129.4c0-0.7,0.7-0.9,2.9-0.9h0.9c2.4,0,3,0.2,3,0.9V182c0,0.7-0.6,1-2.9,1H400c-2.5,0-3-0.3-3-1L396.9,129.4z
		 M461.2,179.9v0.4c0,2,0,2.2-0.6,2.4c-1.1,0.3-2.3,0.4-3.5,0.4c-4.1,0-6.6-2.4-7-6.8c-3,5-8.7,7.6-16.2,7.6
		c-14.7,0-22.9-10.1-22.9-27.1c0-15.5,8.2-29.4,24.8-29.4c4.9,0,9.7,1.5,13.7,4.3v-26.3c0-0.7,1.2-0.9,2.9-0.9h0.8
		c1.8,0,3,0.2,3,0.9v65.7c0,6,1,6.7,4.3,6.7C461.1,177.8,461.2,177.9,461.2,179.9 M449.4,138.6c-3.6-3.2-8.3-4.9-13.1-4.9
		c-11,0-18.2,9-18.2,22.8c0,14.1,6.5,21.4,16.5,21.4c4.2,0.2,8.4-1.4,11.5-4.2c2.8-2.9,3.3-6.4,3.3-15.9L449.4,138.6z M472.4,157.9
		c0.3,7.5,2.3,12.6,5.9,15.7c3.1,2.8,7.6,4.1,13,4.1c4.9,0.1,9.7-1,14.1-3.1c1-0.5,1.5-0.4,2.3,1.7l0.4,1c0.6,1.5,0.6,2.3-0.1,2.7
		c-5.5,2.8-11.7,4.1-17.9,4c-16,0-25-10.3-25-27s9-29.5,24.5-29.5c7.8-0.3,15.1,4.1,18.4,11.1c2.4,5.2,3.6,10.9,3.5,16.7
		c0,2.4-0.4,2.6-1.5,2.6L472.4,157.9 M504.6,152.4c-0.2-9.5-4.7-18.8-15-18.8c-8.9,0-15.6,5.2-17,18.8H504.6z"/>
	<path style="fill:#BA0E69;" d="M75.1,0.5H13.4c-7,0-12.7,5.7-12.7,12.7v59.4c0,7,5.7,12.7,12.7,12.7h61.7c7,0,12.7-5.7,12.7-12.7
		V13.1C87.8,6.2,82.1,0.5,75.1,0.5 M13.9,65.9l1.8-17c0.4-1,1.3-1.8,2.3-2.2l9.2-2.8c-3.5-2.6-5.6-6.7-5.5-11.1
		c0-7.2,5.2-13.1,11.5-13.1s11.5,5.8,11.5,13.1c0.1,4.4-2,8.5-5.5,11.1l9.2,2.8c1,0.4,1.9,1.2,2.3,2.2l1.8,17H13.9z M54.8,57.2
		c-0.5-4.9-1.1-11.3-1.3-11.5c-0.4-1-1.3-1.8-2.3-2.2L49.6,43l6.4-2c-2.6-1.9-4.1-4.9-4-8.2c0-5.3,3.8-9.6,8.5-9.6s8.5,4.3,8.5,9.6
		c0.1,3.2-1.4,6.2-4,8.1l6.7,2.1c0.8,0.3,1.4,0.9,1.7,1.6l1.3,12.5L54.8,57.2L54.8,57.2z"/>
	<path style="fill:#5C3088;" d="M173.9,0.5h-62.2c-7.1,0-12.8,5.7-12.8,12.8v59.8c0,7,5.7,12.8,12.8,12.8h62.2
		c7,0,12.8-5.7,12.8-12.8V13.3C186.6,6.3,180.9,0.6,173.9,0.5 M127.6,61.6c-0.8,0.8-2.2,0.8-3,0l-14.2-14.2c-0.8-0.8-0.8-2.2,0-3
		l7.1-7.1c0.8-0.8,2.2-0.8,3,0l5.6,5.6l18.2-18.4c0.8-0.8,2.2-0.8,3,0l7.1,7.1c0.8,0.8,0.8,2.2,0,3L127.6,61.6z M175.4,43.7
		l-14.1,14.1l0,0l-4.1,4.1c-0.8,0.8-2.2,0.8-3,0l-9.2-9.2c-0.8-0.8-0.8-2.2,0-3l4.1-4.1c0.8-0.8,2.2-0.8,3,0l3.5,3.5l12.5-12.5
		c0.8-0.8,2.2-0.8,3,0l4.1,4.1C176.1,41.5,176.1,42.8,175.4,43.7"/>
	<path style="fill:#467D30;" d="M173.5,97.2h-61.7c-7,0-12.7,5.7-12.7,12.7v59.4c0,7,5.7,12.7,12.7,12.7h61.7
		c7,0,12.7-5.7,12.7-12.7v-59.4C186.2,102.9,180.5,97.2,173.5,97.2 M112.3,165.5l1.8-17c0.4-1,1.3-1.8,2.3-2.2l9.2-2.8
		c-3.5-2.6-5.6-6.7-5.5-11.1c0-7.2,5.2-13,11.5-13c6.3,0,11.5,5.8,11.5,13c0.1,4.4-2,8.5-5.5,11.1l9.2,2.8c1,0.4,1.9,1.2,2.3,2.2
		l1.8,17H112.3z M144.3,141c0-1.5,1.2-2.6,2.6-2.6c1.5,0,2.6,1.2,2.6,2.6c0,1.5-1.2,2.6-2.6,2.6l0,0
		C145.5,143.6,144.3,142.5,144.3,141L144.3,141 M154.3,141c-1.8,0-3.3-1.5-3.3-3.3s1.5-3.3,3.3-3.3c1.8,0,3.3,1.5,3.3,3.3l0,0
		C157.6,139.5,156.1,141,154.3,141L154.3,141 M177.4,127.2c0,3.7-5,6.8-11.2,6.8c-2.7,0-5.3-0.6-7.6-1.8c-0.9,0.2-1.9,0.3-2.9,0.3
		c-4.9,0-8.9-2.8-8.9-6.2v-0.2c-2-0.7-3.3-2.6-3.4-4.7c0.2-3,2.8-5.3,5.8-5.2h0.6c2.1-3.1,6.7-5.3,12-5.3c1.7,0,3.3,0.2,4.9,0.7
		c1-0.4,2.1-0.7,3.3-0.7c4.2-0.1,7.7,3.2,7.9,7.4c0,1.9-0.8,3.8-2.2,5.1C176.7,124.4,177.4,125.7,177.4,127.2"/>
	<path style="fill:#154176;" d="M43.9,145c-2.2,0-4,1.8-4,4.1c0,1.5,0.8,2.8,2.1,3.5l-0.4,8.5h4.7l-0.4-8.5c2-1.1,2.7-3.6,1.6-5.5
		C46.7,145.9,45.4,145.1,43.9,145 M75.1,97H12.8C5.7,97,0,102.7,0,109.8v60.1c0,7.1,5.8,12.8,12.8,12.8H75c7.1,0,12.8-5.7,12.8-12.8
		v-60.1C87.8,102.7,82.1,97,75.1,97 M63.5,165.4c0,1.3-1.1,2.4-2.4,2.4H26.6c-1.3,0-2.4-1.1-2.4-2.4v-24.9c0-1.3,1.1-2.4,2.4-2.4
		h4.2l-2.4-8.8l0,0c-2-7.4,2.4-15,9.7-17c7.4-2,14.9,2.3,17,9.7l1,3.5l-6.4,1.8l-0.5-1.9l2.5-3.2l-3.2,0.9l0,0
		c-1.6-3.6-5.8-5.2-9.5-3.6c-3.1,1.4-4.8,4.7-4.1,8l2.9,10.5h23.5c1.3,0,2.4,1.1,2.4,2.4L63.5,165.4z"/>
</g>
</svg>
